<!-- sprite.svg -->
<svg xmlns="http://www.w3.org/2000/svg" xmlns:xlink="http://www.w3.org/1999/xlink">
  <defs>
    <symbol id="play" viewBox="0 0 24 24">
      <path fill-rule="evenodd"
        d="M4.5 5.653c0-1.426 1.529-2.33 2.779-1.643l11.54 6.348c1.295.712 1.295 2.573 0 3.285L7.28 19.991c-1.25.687-2.779-.217-2.779-1.643V5.653z"
        clip-rule="evenodd" />
    </symbol>

    <symbol id="chevron-down" viewBox="0 0 20 20" fill="none">
      <path
        d="M9.4468 13.6623C9.75145 13.967 10.2441 13.967 10.5455 13.6623L16.7715 7.43957C17.0762 7.13491 17.0762 6.64228 16.7715 6.34086C16.4669 6.03945 15.9742 6.03621 15.6728 6.34086L10.001 12.0127L4.32598 6.33762C4.02133 6.03297 3.52869 6.03297 3.22728 6.33762C2.92586 6.64228 2.92262 7.13491 3.22728 7.43633L9.4468 13.6623Z"
        fill="currentColor" />
    </symbol>

    <symbol id="chevron-left" viewBox="0 0 20 20" fill="none">
      <path
        d="M6.33787 9.4468C6.03321 9.75145 6.03321 10.2441 6.33787 10.5455L12.5606 16.7715C12.8653 17.0762 13.3579 17.0762 13.6593 16.7715C13.9608 16.4669 13.964 15.9742 13.6593 15.6728L7.98755 9.99777L13.6626 4.32598C13.9672 4.02133 13.9672 3.52869 13.6626 3.22728C13.3579 2.92586 12.8653 2.92262 12.5639 3.22728L6.33787 9.4468Z"
        fill="currentColor" />
    </symbol>

    <symbol id="chevron-right" viewBox="0 0 20 20" fill="none">
      <path
        d="M13.6626 9.4468C13.9672 9.75145 13.9672 10.2441 13.6626 10.5455L7.43981 16.7715C7.13516 17.0762 6.64252 17.0762 6.34111 16.7715C6.03969 16.4669 6.03645 15.9742 6.34111 15.6728L12.0129 10.001L6.33787 4.32598C6.03321 4.02133 6.03321 3.52869 6.33787 3.22728C6.64252 2.92586 7.13516 2.92262 7.43657 3.22728L13.6626 9.4468Z"
        fill="currentColor" />
    </symbol>

    <symbol id="chevron-up" viewBox="0 0 20 20" fill="none">
      <path
        d="M9.4468 6.33762C9.75145 6.03297 10.2441 6.03297 10.5455 6.33762L16.7715 12.5604C17.0762 12.865 17.0762 13.3577 16.7715 13.6591C16.4669 13.9605 15.9742 13.9637 15.6728 13.6591L10.001 7.9873L4.32598 13.6623C4.02133 13.967 3.52869 13.967 3.22728 13.6623C2.92586 13.3577 2.92262 12.865 3.22728 12.5636L9.4468 6.33762Z"
        fill="currentColor" />
    </symbol>

    <symbol id="arrow-top-right-on-square" viewBox="0 0 20 20" fill="none">
      <path
        d="M11.502 2.75C11.502 3.16562 11.8363 3.5 12.252 3.5H15.4426L8.4707 10.4688C8.17695 10.7625 8.17695 11.2375 8.4707 11.5281C8.76445 11.8187 9.23945 11.8219 9.53008 11.5281L16.4988 4.55938V7.75C16.4988 8.16563 16.8332 8.5 17.2488 8.5C17.6645 8.5 17.9988 8.16563 17.9988 7.75V2.75C17.9988 2.33437 17.6645 2 17.2488 2H12.252C11.8363 2 11.502 2.33437 11.502 2.75ZM4.25195 3C3.0082 3 2.00195 4.00625 2.00195 5.25V15.75C2.00195 16.9937 3.0082 18 4.25195 18H14.752C15.9957 18 17.002 16.9937 17.002 15.75V11.75C17.002 11.3344 16.6676 11 16.252 11C15.8363 11 15.502 11.3344 15.502 11.75V15.75C15.502 16.1656 15.1676 16.5 14.752 16.5H4.25195C3.83633 16.5 3.50195 16.1656 3.50195 15.75V5.25C3.50195 4.83437 3.83633 4.5 4.25195 4.5H8.25195C8.66758 4.5 9.00195 4.16563 9.00195 3.75C9.00195 3.33438 8.66758 3 8.25195 3H4.25195Z"
        fill="currentColor" />
    </symbol>

    <symbol id="heart" viewBox="0 0 20 20" fill="none">
      <path
        d="M9.05625 16.4606L8.97813 16.3887L3.50312 11.3043C2.54375 10.4137 2 9.16368 2 7.8543V7.75118C2 5.55118 3.5625 3.66368 5.725 3.25118C6.95625 3.01368 8.21562 3.29805 9.21875 4.0043C9.5 4.2043 9.7625 4.43555 10 4.70118C10.1313 4.55118 10.2719 4.41368 10.4219 4.28555C10.5375 4.18555 10.6562 4.0918 10.7812 4.0043C11.7844 3.29805 13.0437 3.01368 14.275 3.24805C16.4375 3.66055 18 5.55118 18 7.75118V7.8543C18 9.16368 17.4563 10.4137 16.4969 11.3043L11.0219 16.3887L10.9438 16.4606C10.6875 16.6981 10.35 16.8324 10 16.8324C9.65 16.8324 9.3125 16.7012 9.05625 16.4606ZM9.47188 6.36055C9.45938 6.35118 9.45 6.33868 9.44063 6.32618L8.88438 5.70118L8.88125 5.69805C8.15937 4.88868 7.06875 4.51993 6.00625 4.72305C4.55 5.00118 3.5 6.26993 3.5 7.75118V7.8543C3.5 8.74493 3.87188 9.59805 4.525 10.2043L10 15.2887L15.475 10.2043C16.1281 9.59805 16.5 8.74493 16.5 7.8543V7.75118C16.5 6.27305 15.45 5.00118 13.9969 4.72305C12.9344 4.51993 11.8406 4.8918 11.1219 5.69805C11.1219 5.69805 11.1219 5.69805 11.1187 5.70118C11.1156 5.7043 11.1188 5.70118 11.1156 5.7043L10.5594 6.3293C10.55 6.3418 10.5375 6.35118 10.5281 6.36368C10.3875 6.5043 10.1969 6.58243 10 6.58243C9.80312 6.58243 9.6125 6.5043 9.47188 6.36368V6.36055Z"
        fill="currentColor" />
    </symbol>

    <symbol id="shopping-cart" viewBox="0 0 20 20" fill="none">
      <path
        d="M1.82617 2C1.41055 2 1.07617 2.33437 1.07617 2.75C1.07617 3.16562 1.41055 3.5 1.82617 3.5H3.24805C3.3668 3.5 3.46992 3.58438 3.49492 3.70312L5.10742 12.1719C5.31055 13.2344 6.23867 14 7.3168 14H16.3262C16.7418 14 17.0762 13.6656 17.0762 13.25C17.0762 12.8344 16.7418 12.5 16.3262 12.5H7.3168C6.95742 12.5 6.64805 12.2437 6.5793 11.8906L6.41055 11H15.4262C16.4449 11 17.3355 10.3188 17.598 9.33437L18.8793 4.575C19.0949 3.78125 18.4949 3 17.673 3H4.8293C4.54492 2.4 3.93867 2 3.24805 2H1.82617ZM5.17305 4.5H17.348L16.1512 8.94375C16.0637 9.27187 15.7668 9.5 15.4262 9.5H6.12617L5.17305 4.5ZM6.57617 18C6.974 18 7.35553 17.842 7.63683 17.5607C7.91814 17.2794 8.07617 16.8978 8.07617 16.5C8.07617 16.1022 7.91814 15.7206 7.63683 15.4393C7.35553 15.158 6.974 15 6.57617 15C6.17835 15 5.79682 15.158 5.51551 15.4393C5.23421 15.7206 5.07617 16.1022 5.07617 16.5C5.07617 16.8978 5.23421 17.2794 5.51551 17.5607C5.79682 17.842 6.17835 18 6.57617 18ZM17.0762 16.5C17.0762 16.1022 16.9181 15.7206 16.6368 15.4393C16.3555 15.158 15.974 15 15.5762 15C15.1783 15 14.7968 15.158 14.5155 15.4393C14.2342 15.7206 14.0762 16.1022 14.0762 16.5C14.0762 16.8978 14.2342 17.2794 14.5155 17.5607C14.7968 17.842 15.1783 18 15.5762 18C15.974 18 16.3555 17.842 16.6368 17.5607C16.9181 17.2794 17.0762 16.8978 17.0762 16.5Z"
        fill="currentColor" />
    </symbol>

    <symbol id="phone" viewBox="0 0 20 20" fill="none">
      <path
        d="M13.7437 10.5982C13.2313 10.3794 12.6376 10.5232 12.2845 10.9543L11.2472 12.2229C9.80997 11.3886 8.61018 10.1889 7.77595 8.7516L9.04136 7.71741C9.47253 7.36434 9.61938 6.7707 9.39755 6.25829L7.89781 2.75889C7.66347 2.20899 7.07295 1.90279 6.48868 2.02777L2.98928 2.77764C2.41438 2.89949 2.00195 3.40878 2.00195 3.9993C2.00195 11.2231 7.476 17.172 14.5029 17.9188C14.8091 17.95 15.1153 17.975 15.4278 17.9875H15.4309C15.6215 17.9938 15.8089 18 15.9995 18C16.59 18 17.0993 17.5876 17.2212 17.0127L17.9711 13.5133C18.096 12.929 17.7898 12.3385 17.2399 12.1041L13.7405 10.6044L13.7437 10.5982ZM15.7964 16.4971C9.05698 16.3878 3.61105 10.9418 3.50482 4.20239L6.60428 3.53688L7.9478 6.67384L6.82612 7.59243C6.25747 8.05797 6.11062 8.86721 6.4793 9.5046C7.44476 11.1699 8.83202 12.5572 10.4974 13.5227C11.1347 13.8913 11.944 13.7445 12.4095 13.1758L13.3281 12.0542L16.4651 13.3977L15.7964 16.4971Z"
        fill="currentColor" />
    </symbol>

    <symbol id="x-mark" viewBox="0 0 20 20" fill="none">
      <path
        d="M14.7717 6.27237C15.0647 5.97809 15.0637 5.50324 14.7695 5.21332C14.4752 4.92341 14.0003 4.92129 13.7104 5.21556L10.0007 8.941L6.27213 5.22815C5.97785 4.93512 5.503 4.93612 5.21309 5.23039C4.92318 5.52466 4.92106 5.99952 5.21533 6.28943L8.94076 9.99916L5.22792 13.7277C4.93488 14.022 4.93589 14.4969 5.23016 14.7868C5.52443 15.0767 5.99929 15.0788 6.2892 14.7845L9.99892 11.0591L13.7275 14.7719C14.0218 15.065 14.4966 15.064 14.7865 14.7697C15.0764 14.4754 15.0786 14.0006 14.7843 13.7107L11.0589 10.0009L14.7717 6.27237Z"
        fill="currentColor" />
    </symbol>

    <symbol id="bars-3" viewBox="0 0 20 20" fill="none">
      <path
        d="M3.40332 5C3.40332 4.58437 3.7377 4.25 4.15332 4.25H16.6533C17.0689 4.25 17.4033 4.58437 17.4033 5C17.4033 5.41562 17.0689 5.75 16.6533 5.75H4.15332C3.7377 5.75 3.40332 5.41562 3.40332 5ZM3.40332 10C3.40332 9.58437 3.7377 9.25 4.15332 9.25H16.6533C17.0689 9.25 17.4033 9.58437 17.4033 10C17.4033 10.4156 17.0689 10.75 16.6533 10.75H4.15332C3.7377 10.75 3.40332 10.4156 3.40332 10ZM17.4033 15C17.4033 15.4156 17.0689 15.75 16.6533 15.75H4.15332C3.7377 15.75 3.40332 15.4156 3.40332 15C3.40332 14.5844 3.7377 14.25 4.15332 14.25H16.6533C17.0689 14.25 17.4033 14.5844 17.4033 15Z"
        fill="currentColor" />
    </symbol>

    <symbol id="check-circle" viewBox="0 0 20 20" fill="none">
      <path
        d="M10 3.5C11.7239 3.5 13.3772 4.18482 14.5962 5.40381C15.8152 6.62279 16.5 8.27609 16.5 10C16.5 11.7239 15.8152 13.3772 14.5962 14.5962C13.3772 15.8152 11.7239 16.5 10 16.5C8.27609 16.5 6.62279 15.8152 5.40381 14.5962C4.18482 13.3772 3.5 11.7239 3.5 10C3.5 8.27609 4.18482 6.62279 5.40381 5.40381C6.62279 4.18482 8.27609 3.5 10 3.5ZM10 18C12.1217 18 14.1566 17.1571 15.6569 15.6569C17.1571 14.1566 18 12.1217 18 10C18 7.87827 17.1571 5.84344 15.6569 4.34315C14.1566 2.84285 12.1217 2 10 2C7.87827 2 5.84344 2.84285 4.34315 4.34315C2.84285 5.84344 2 7.87827 2 10C2 12.1217 2.84285 14.1566 4.34315 15.6569C5.84344 17.1571 7.87827 18 10 18ZM13.5312 8.53125C13.825 8.2375 13.825 7.7625 13.5312 7.47188C13.2375 7.18125 12.7625 7.17813 12.4719 7.47188L9.00313 10.9406L7.53438 9.47188C7.24063 9.17813 6.76562 9.17813 6.475 9.47188C6.18437 9.76562 6.18125 10.2406 6.475 10.5312L8.475 12.5312C8.76875 12.825 9.24375 12.825 9.53438 12.5312L13.5312 8.53125Z"
        fill="#1B1A19" />
    </symbol>

    <symbol id="exclamation-circle" viewBox="0 0 20 20" fill="none">
      <path
        d="M10 3.5C11.7239 3.5 13.3772 4.18482 14.5962 5.40381C15.8152 6.62279 16.5 8.27609 16.5 10C16.5 11.7239 15.8152 13.3772 14.5962 14.5962C13.3772 15.8152 11.7239 16.5 10 16.5C8.27609 16.5 6.62279 15.8152 5.40381 14.5962C4.18482 13.3772 3.5 11.7239 3.5 10C3.5 8.27609 4.18482 6.62279 5.40381 5.40381C6.62279 4.18482 8.27609 3.5 10 3.5ZM10 18C12.1217 18 14.1566 17.1571 15.6569 15.6569C17.1571 14.1566 18 12.1217 18 10C18 7.87827 17.1571 5.84344 15.6569 4.34315C14.1566 2.84285 12.1217 2 10 2C7.87827 2 5.84344 2.84285 4.34315 4.34315C2.84285 5.84344 2 7.87827 2 10C2 12.1217 2.84285 14.1566 4.34315 15.6569C5.84344 17.1571 7.87827 18 10 18ZM10 6C9.58437 6 9.25 6.33437 9.25 6.75V10.25C9.25 10.6656 9.58437 11 10 11C10.4156 11 10.75 10.6656 10.75 10.25V6.75C10.75 6.33437 10.4156 6 10 6ZM11 13C11 12.7348 10.8946 12.4804 10.7071 12.2929C10.5196 12.1054 10.2652 12 10 12C9.73478 12 9.48043 12.1054 9.29289 12.2929C9.10536 12.4804 9 12.7348 9 13C9 13.2652 9.10536 13.5196 9.29289 13.7071C9.48043 13.8946 9.73478 14 10 14C10.2652 14 10.5196 13.8946 10.7071 13.7071C10.8946 13.5196 11 13.2652 11 13Z"
        fill="currentColor" />
    </symbol>

    <symbol id="exclamation-triangle" viewBox="0 0 20 20" fill="none">
      <path
        d="M9.7625 4.63437C9.8125 4.55 9.90312 4.5 10 4.5C10.0969 4.5 10.1875 4.55 10.2375 4.63437L16.4344 14.8125C16.4781 14.8844 16.5 14.9656 16.5 15.0469C16.5 15.2969 16.2969 15.5 16.0469 15.5H3.95312C3.70312 15.5 3.5 15.2969 3.5 15.0469C3.5 14.9625 3.52187 14.8812 3.56562 14.8125L9.7625 4.63437ZM8.48125 3.85312L2.28438 14.0312C2.09688 14.3375 2 14.6875 2 15.0469C2 16.125 2.875 17 3.95312 17H16.0469C17.125 17 18 16.125 18 15.0469C18 14.6875 17.9 14.3375 17.7156 14.0312L11.5188 3.85312C11.1969 3.325 10.6219 3 10 3C9.37813 3 8.80312 3.325 8.48125 3.85312ZM11 13.5C11 13.2348 10.8946 12.9804 10.7071 12.7929C10.5196 12.6054 10.2652 12.5 10 12.5C9.73478 12.5 9.48043 12.6054 9.29289 12.7929C9.10536 12.9804 9 13.2348 9 13.5C9 13.7652 9.10536 14.0196 9.29289 14.2071C9.48043 14.3946 9.73478 14.5 10 14.5C10.2652 14.5 10.5196 14.3946 10.7071 14.2071C10.8946 14.0196 11 13.7652 11 13.5ZM10.75 7.75C10.75 7.33437 10.4156 7 10 7C9.58437 7 9.25 7.33437 9.25 7.75V10.75C9.25 11.1656 9.58437 11.5 10 11.5C10.4156 11.5 10.75 11.1656 10.75 10.75V7.75Z"
        fill="currentColor" />
    </symbol>

    <svg id="information-circle" viewBox="0 0 20 20" fill="none">
      <path
        d="M10 3.5C11.7239 3.5 13.3772 4.18482 14.5962 5.40381C15.8152 6.62279 16.5 8.27609 16.5 10C16.5 11.7239 15.8152 13.3772 14.5962 14.5962C13.3772 15.8152 11.7239 16.5 10 16.5C8.27609 16.5 6.62279 15.8152 5.40381 14.5962C4.18482 13.3772 3.5 11.7239 3.5 10C3.5 8.27609 4.18482 6.62279 5.40381 5.40381C6.62279 4.18482 8.27609 3.5 10 3.5ZM10 18C12.1217 18 14.1566 17.1571 15.6569 15.6569C17.1571 14.1566 18 12.1217 18 10C18 7.87827 17.1571 5.84344 15.6569 4.34315C14.1566 2.84285 12.1217 2 10 2C7.87827 2 5.84344 2.84285 4.34315 4.34315C2.84285 5.84344 2 7.87827 2 10C2 12.1217 2.84285 14.1566 4.34315 15.6569C5.84344 17.1571 7.87827 18 10 18ZM8.75 12.5C8.33437 12.5 8 12.8344 8 13.25C8 13.6656 8.33437 14 8.75 14H11.25C11.6656 14 12 13.6656 12 13.25C12 12.8344 11.6656 12.5 11.25 12.5H11V9.75C11 9.33437 10.6656 9 10.25 9H8.75C8.33437 9 8 9.33437 8 9.75C8 10.1656 8.33437 10.5 8.75 10.5H9.5V12.5H8.75ZM10 8C10.2652 8 10.5196 7.89464 10.7071 7.70711C10.8946 7.51957 11 7.26522 11 7C11 6.73478 10.8946 6.48043 10.7071 6.29289C10.5196 6.10536 10.2652 6 10 6C9.73478 6 9.48043 6.10536 9.29289 6.29289C9.10536 6.48043 9 6.73478 9 7C9 7.26522 9.10536 7.51957 9.29289 7.70711C9.48043 7.89464 9.73478 8 10 8Z"
        fill="currentColor" />
    </svg>

    <symbol id="facebook" viewBox="0 0 24 24" fill="none">
      <path
        d="M19.9915 4.896V19.1131C19.9915 19.3509 19.9093 19.5611 19.7447 19.7349C19.5801 19.9177 19.3607 20 19.1047 20H15.0361V13.7829H17.1115L17.4315 11.3874H15.0361V9.85143C15.0361 9.44914 15.1093 9.16571 15.2464 8.992C15.4384 8.78171 15.7584 8.672 16.2064 8.672H17.4955V6.496C16.9927 6.45029 16.3801 6.42286 15.6395 6.42286C14.707 6.42286 13.9573 6.69714 13.3904 7.24571C12.8235 7.79429 12.531 8.58057 12.531 9.60457V11.3874H10.4555V13.7829H12.531V20H4.88754C4.6224 20 4.41212 19.9086 4.24754 19.7349C4.08297 19.552 4.00069 19.3509 4.00069 19.1131V4.896C3.99154 4.63086 4.07383 4.42057 4.2384 4.24686C4.40297 4.07314 4.6224 4 4.8784 4H19.0955C19.3333 4 19.5435 4.08229 19.7173 4.24686C19.9001 4.41143 19.9824 4.63086 19.9824 4.88686L19.9915 4.896Z"
        fill="currentColor" />
    </symbol>

    <symbol id="instagram" viewBox="0 0 24 24" fill="none">
      <path
        d="M12.8224 4.00098C13.4062 3.99874 13.9899 4.00461 14.5735 4.01858L14.7287 4.02418C14.9079 4.03058 15.0847 4.03858 15.2983 4.04818C16.1494 4.08818 16.7302 4.22257 17.2398 4.42016C17.7678 4.62335 18.2125 4.89854 18.6573 5.34332C19.064 5.74298 19.3787 6.22643 19.5797 6.76004C19.7773 7.26962 19.9116 7.85119 19.9516 8.70234C19.9612 8.91513 19.9692 9.09272 19.9756 9.27191L19.9804 9.42711C19.9947 10.0104 20.0008 10.5939 19.9988 11.1774L19.9996 11.7742V12.8221C20.0016 13.4059 19.9955 13.9897 19.9812 14.5732L19.9764 14.7284C19.97 14.9076 19.962 15.0844 19.9524 15.298C19.9124 16.1492 19.7765 16.7299 19.5797 17.2395C19.3794 17.7737 19.0646 18.2575 18.6573 18.657C18.2573 19.0637 17.7736 19.3784 17.2398 19.5794C16.7302 19.777 16.1494 19.9114 15.2983 19.9514C15.0847 19.961 14.9079 19.969 14.7287 19.9754L14.5735 19.9802C13.9899 19.9944 13.4062 20.0005 12.8224 19.9986L12.2256 19.9994H11.1785C10.5947 20.0013 10.011 19.9952 9.42738 19.981L9.27219 19.9762C9.08229 19.9693 8.89243 19.9613 8.70262 19.9522C7.85146 19.9122 7.27069 19.7762 6.76032 19.5794C6.22649 19.3789 5.74296 19.0641 5.34359 18.657C4.93645 18.2573 4.62141 17.7735 4.42044 17.2395C4.22285 16.7299 4.08846 16.1492 4.04846 15.298C4.03955 15.1082 4.03155 14.9183 4.02446 14.7284L4.02046 14.5732C4.00571 13.9897 3.99905 13.4059 4.00046 12.8221V11.1774C3.99823 10.5939 4.0041 10.0104 4.01806 9.42711L4.02366 9.27191C4.03006 9.09272 4.03806 8.91513 4.04766 8.70234C4.08766 7.85039 4.22205 7.27042 4.41964 6.76004C4.62073 6.22617 4.93638 5.74285 5.34439 5.34412C5.74349 4.93674 6.22672 4.62141 6.76032 4.42016C7.27069 4.22257 7.85066 4.08818 8.70262 4.04818L9.27219 4.02418L9.42738 4.02018C10.0107 4.00544 10.5942 3.99878 11.1777 4.00018L12.8224 4.00098ZM12.0001 8.00078C11.4701 7.99328 10.9439 8.09119 10.4521 8.28882C9.96031 8.48644 9.5127 8.77984 9.13527 9.15196C8.75785 9.52409 8.45815 9.96751 8.25359 10.4565C8.04903 10.9454 7.94369 11.4702 7.94369 12.0002C7.94369 12.5302 8.04903 13.0549 8.25359 13.5439C8.45815 14.0328 8.75785 14.4763 9.13527 14.8484C9.5127 15.2205 9.96031 15.5139 10.4521 15.7115C10.9439 15.9092 11.4701 16.0071 12.0001 15.9996C13.0609 15.9996 14.0782 15.5782 14.8283 14.8281C15.5784 14.0779 15.9998 13.0606 15.9998 11.9998C15.9998 10.939 15.5784 9.9216 14.8283 9.17149C14.0782 8.42138 13.0609 8.00078 12.0001 8.00078ZM12.0001 9.6007C12.3188 9.59482 12.6356 9.65253 12.9318 9.77045C13.2281 9.88838 13.4978 10.0641 13.7254 10.2875C13.9529 10.5108 14.1337 10.7773 14.2571 11.0713C14.3805 11.3653 14.4441 11.6809 14.4441 11.9998C14.4442 12.3186 14.3807 12.6343 14.2574 12.9283C14.1341 13.2223 13.9534 13.4888 13.726 13.7123C13.4985 13.9357 13.2288 14.1116 12.9326 14.2296C12.6364 14.3476 12.3196 14.4054 12.0009 14.3997C11.3644 14.3997 10.7539 14.1468 10.3039 13.6967C9.85382 13.2467 9.60097 12.6363 9.60097 11.9998C9.60097 11.3633 9.85382 10.7529 10.3039 10.3028C10.7539 9.85274 11.3644 9.5999 12.0009 9.5999L12.0001 9.6007ZM16.1998 6.80084C15.9418 6.81117 15.6977 6.92096 15.5188 7.1072C15.3398 7.29345 15.2399 7.54171 15.2399 7.79999C15.2399 8.05827 15.3398 8.30653 15.5188 8.49278C15.6977 8.67902 15.9418 8.78881 16.1998 8.79914C16.465 8.79914 16.7194 8.69379 16.9069 8.50626C17.0944 8.31873 17.1998 8.06439 17.1998 7.79919C17.1998 7.53399 17.0944 7.27965 16.9069 7.09212C16.7194 6.90459 16.465 6.79924 16.1998 6.79924V6.80084Z"
        fill="currentColor" />
    </symbol>

    <symbol id="file" viewBox="0 0 20 20" fill="none">
      <path
        d="M6 16.5C5.725 16.5 5.5 16.275 5.5 16V4C5.5 3.725 5.725 3.5 6 3.5H11V6C11 6.55312 11.4469 7 12 7H14.5V16C14.5 16.275 14.275 16.5 14 16.5H6ZM6 2C4.89688 2 4 2.89688 4 4V16C4 17.1031 4.89688 18 6 18H14C15.1031 18 16 17.1031 16 16V6.82812C16 6.29688 15.7906 5.7875 15.4156 5.4125L12.5844 2.58438C12.2094 2.20938 11.7031 2 11.1719 2H6ZM7.75 10C7.33437 10 7 10.3344 7 10.75C7 11.1656 7.33437 11.5 7.75 11.5H12.25C12.6656 11.5 13 11.1656 13 10.75C13 10.3344 12.6656 10 12.25 10H7.75ZM7.75 13C7.33437 13 7 13.3344 7 13.75C7 14.1656 7.33437 14.5 7.75 14.5H12.25C12.6656 14.5 13 14.1656 13 13.75C13 13.3344 12.6656 13 12.25 13H7.75Z"
        fill="currentColor" />
    </symbol>

    <symbol id="eye" viewBox="0 0 20 20" fill="none">
      <path
        d="M9.99839 4.45213C7.94317 4.45213 6.2536 5.38518 4.95805 6.58616C3.74446 7.71464 2.90598 9.05432 2.47729 9.99997C2.90598 10.9456 3.74446 12.2853 4.9549 13.4138C6.2536 14.6148 7.94317 15.5478 9.99839 15.5478C12.0536 15.5478 13.7432 14.6148 15.0387 13.4138C16.2523 12.2853 17.0908 10.9456 17.5195 9.99997C17.0908 9.05432 16.2523 7.71464 15.0419 6.58616C13.7432 5.38518 12.0536 4.45213 9.99839 4.45213ZM3.92729 5.47974C5.41197 4.09909 7.45143 2.93909 9.99839 2.93909C12.5453 2.93909 14.5848 4.09909 16.0695 5.47974C17.5447 6.85094 18.5313 8.48692 19.001 9.61225C19.105 9.86127 19.105 10.1387 19.001 10.3877C18.5313 11.513 17.5447 13.1521 16.0695 14.5202C14.5848 15.9008 12.5453 17.0609 9.99839 17.0609C7.45143 17.0609 5.41197 15.9008 3.92729 14.5202C2.45207 13.1521 1.46544 11.513 0.998915 10.3877C0.894893 10.1387 0.894893 9.86127 0.998915 9.61225C1.46544 8.48692 2.45207 6.84779 3.92729 5.47974ZM9.99839 12.5217C11.3917 12.5217 12.5201 11.3932 12.5201 9.99997C12.5201 8.60671 11.3917 7.47823 9.99839 7.47823C9.97632 7.47823 9.95741 7.47823 9.93534 7.47823C9.97632 7.63899 9.99839 7.8092 9.99839 7.98257C9.99839 9.09529 9.09371 9.99997 7.98099 9.99997C7.80762 9.99997 7.63741 9.9779 7.47664 9.93693C7.47664 9.95899 7.47664 9.9779 7.47664 9.99997C7.47664 11.3932 8.60512 12.5217 9.99839 12.5217ZM9.99839 5.96518C11.0685 5.96518 12.0947 6.39027 12.8514 7.14694C13.6081 7.90361 14.0332 8.92988 14.0332 9.99997C14.0332 11.0701 13.6081 12.0963 12.8514 12.853C12.0947 13.6097 11.0685 14.0348 9.99839 14.0348C8.9283 14.0348 7.90203 13.6097 7.14536 12.853C6.38869 12.0963 5.9636 11.0701 5.9636 9.99997C5.9636 8.92988 6.38869 7.90361 7.14536 7.14694C7.90203 6.39027 8.9283 5.96518 9.99839 5.96518Z"
        fill="currentColor" />
    </symbol>

    <symbol id="eye-slash" viewBox="0 0 20 20" fill="none">
      <path
        d="M1.21265 2.15955C0.887656 1.9033 0.415792 1.96268 0.159547 2.28767C-0.0966972 2.61266 -0.0373235 3.08453 0.287669 3.34077L18.7873 17.8405C19.1123 18.0967 19.5841 18.0373 19.8404 17.7123C20.0966 17.3873 20.0372 16.9155 19.7122 16.6592L16.4248 14.0843C17.6623 12.8156 18.4998 11.3937 18.9216 10.3844C19.0248 10.1375 19.0248 9.8625 18.9216 9.61563C18.456 8.50003 17.4779 6.87507 16.0154 5.51885C14.5467 4.15013 12.5249 3.00015 9.99996 3.00015C7.86875 3.00015 6.09379 3.82201 4.70945 4.90011L1.21265 2.15955ZM5.9313 5.85634C7.06252 5.05323 8.42187 4.50012 9.99996 4.50012C12.0374 4.50012 13.7124 5.4251 14.9967 6.6157C16.1998 7.73442 17.0311 9.06252 17.456 10C17.0623 10.875 16.3123 12.0875 15.2405 13.1531L13.5593 11.8343C13.8436 11.2843 14.003 10.6625 14.003 10C14.003 7.79067 12.2124 6.00009 10.0031 6.00009C8.99685 6.00009 8.075 6.37195 7.37189 6.98444L5.9313 5.85634ZM12.3405 10.8812L9.79371 8.8844C9.92496 8.61878 9.99996 8.31566 9.99996 8.00004C9.99996 7.82817 9.97808 7.65943 9.93746 7.50005C9.95933 7.50005 9.97808 7.50005 9.99996 7.50005C11.3812 7.50005 12.4999 8.61878 12.4999 10C12.4999 10.3094 12.4437 10.6062 12.3405 10.8812ZM12.6343 14.953C11.8374 15.2936 10.9593 15.4999 9.99996 15.4999C7.9625 15.4999 6.28754 14.5749 5.00319 13.3843C3.80009 12.2656 2.96886 10.9375 2.54387 10C2.80324 9.42501 3.21573 8.70315 3.77509 7.97504L2.59699 7.04694C1.88451 7.97504 1.37515 8.90002 1.07828 9.61563C0.975154 9.8625 0.975154 10.1375 1.07828 10.3844C1.54389 11.5 2.522 13.1249 3.98446 14.4812C5.45318 15.8499 7.47501 16.9998 9.99996 16.9998C11.4937 16.9998 12.8093 16.5967 13.9436 15.9842L12.6343 14.953ZM6.00004 10C6.00004 12.2093 7.79063 13.9999 9.99996 13.9999C10.4156 13.9999 10.8156 13.9374 11.1937 13.8187L9.43747 12.4374C8.70311 12.2687 8.09062 11.775 7.75938 11.1156L6.00629 9.73438C6.00004 9.82188 5.99692 9.90938 5.99692 10H6.00004Z"
        fill="currentColor" />
    </symbol>

    <symbol id="user" viewBox="0 0 20 20" fill="none">
      <path
        d="M12.5 6C12.5 5.33696 12.2366 4.70107 11.7678 4.23223C11.2989 3.76339 10.663 3.5 10 3.5C9.33696 3.5 8.70107 3.76339 8.23223 4.23223C7.76339 4.70107 7.5 5.33696 7.5 6C7.5 6.66304 7.76339 7.29893 8.23223 7.76777C8.70107 8.23661 9.33696 8.5 10 8.5C10.663 8.5 11.2989 8.23661 11.7678 7.76777C12.2366 7.29893 12.5 6.66304 12.5 6ZM6 6C6 4.93913 6.42143 3.92172 7.17157 3.17157C7.92172 2.42143 8.93913 2 10 2C11.0609 2 12.0783 2.42143 12.8284 3.17157C13.5786 3.92172 14 4.93913 14 6C14 7.06087 13.5786 8.07828 12.8284 8.82843C12.0783 9.57857 11.0609 10 10 10C8.93913 10 7.92172 9.57857 7.17157 8.82843C6.42143 8.07828 6 7.06087 6 6ZM4.54062 16.5H15.4594C15.1813 14.5219 13.4813 13 11.4281 13H8.57188C6.51875 13 4.81875 14.5219 4.54062 16.5ZM3 17.0719C3 13.9937 5.49375 11.5 8.57188 11.5H11.4281C14.5063 11.5 17 13.9937 17 17.0719C17 17.5844 16.5844 18 16.0719 18H3.92813C3.41563 18 3 17.5844 3 17.0719Z"
        fill="currentColor" />
    </symbol>

    <symbol id="exclamation-hexagon" viewBox="0 0 20 20" fill="none">
      <path d="M2.31137 11.1589C1.89621 10.441 1.89621 9.55898 2.31137 8.84109L5.15317 3.91892C5.56834 3.20104 6.33109 2.76001 7.16142 2.76001H12.8418C13.6689 2.76001 14.4349 3.20104 14.85 3.91892L17.6886 8.84109C18.1038 9.55898 18.1038 10.441 17.6886 11.1589L14.8468 16.0811C14.4317 16.799 13.6689 17.24 12.8386 17.24H7.1582C6.33109 17.24 5.56512 16.799 5.14995 16.0811L2.31137 11.1589ZM3.65021 9.6137C3.51182 9.85193 3.51182 10.1481 3.65021 10.3863L6.492 15.3085C6.63039 15.5467 6.88464 15.6948 7.16142 15.6948H12.8418C13.1186 15.6948 13.3728 15.5467 13.5112 15.3085L16.353 10.3863C16.4914 10.1481 16.4914 9.85193 16.353 9.6137L13.5112 4.69153C13.3728 4.45331 13.1186 4.30523 12.8418 4.30523H7.1582C6.88142 4.30523 6.62717 4.45331 6.48879 4.69153L3.64699 9.6137H3.65021ZM10 5.87942C10.428 5.87942 10.7724 6.22388 10.7724 6.65203V10.2575C10.7724 10.6857 10.428 11.0302 10 11.0302C9.57196 11.0302 9.2276 10.6857 9.2276 10.2575V6.65203C9.2276 6.22388 9.57196 5.87942 10 5.87942ZM8.97013 13.0904C8.97013 12.8172 9.07863 12.5552 9.27177 12.362C9.46491 12.1688 9.72686 12.0603 10 12.0603C10.2731 12.0603 10.5351 12.1688 10.7282 12.362C10.9214 12.5552 11.0299 12.8172 11.0299 13.0904C11.0299 13.3637 10.9214 13.6257 10.7282 13.8189C10.5351 14.0121 10.2731 14.1206 10 14.1206C9.72686 14.1206 9.46491 14.0121 9.27177 13.8189C9.07863 13.6257 8.97013 13.3637 8.97013 13.0904Z" fill="currentColor"/>
    </symbol>

    <symbol id="plus" fill="none" viewBox="0 0 20 20" stroke="currentColor">
      <path d="M10.8077 3.80769C10.8077 3.3601 10.4476 3 10 3C9.5524 3 9.19231 3.3601 9.19231 3.80769V9.19231H3.80769C3.3601 9.19231 3 9.5524 3 10C3 10.4476 3.3601 10.8077 3.80769 10.8077H9.19231V16.1923C9.19231 16.6399 9.5524 17 10 17C10.4476 17 10.8077 16.6399 10.8077 16.1923V10.8077H16.1923C16.6399 10.8077 17 10.4476 17 10C17 9.5524 16.6399 9.19231 16.1923 9.19231H10.8077V3.80769Z" fill="currentColor"/>
    </symbol>

    <symbol id="minus" viewBox="0 0 14 2" fill="none" stroke="currentColor">
      <path d="M13.5 1C13.5 1.41563 13.1656 1.75 12.75 1.75H1.25C0.834375 1.75 0.5 1.41563 0.5 1C0.5 0.584375 0.834375 0.25 1.25 0.25H12.75C13.1656 0.25 13.5 0.584375 13.5 1Z" fill="currentColor"/>
    </symbol>
   
    <symbol id="trash" viewBox="0 0 20 20" fill="none">
      <path d="M8.53437 3.5H11.4625C11.5469 3.5 11.625 3.54062 11.6719 3.6125L12.2656 4.5H7.73437L8.32812 3.6125C8.375 3.54375 8.45312 3.5 8.5375 3.5H8.53437ZM14.0687 4.5L12.9219 2.77812C12.5969 2.29375 12.05 2 11.4656 2H8.53437C7.95 2 7.40312 2.29375 7.07812 2.77812L5.93125 4.5H5.50312H4H3.75C3.33437 4.5 3 4.83437 3 5.25C3 5.66563 3.33437 6 3.75 6H4.1125L4.8625 16.1469C4.94062 17.1906 5.80937 18 6.85625 18H13.1437C14.1906 18 15.0594 17.1906 15.1375 16.1469L15.8875 6H16.25C16.6656 6 17 5.66563 17 5.25C17 4.83437 16.6656 4.5 16.25 4.5H16H14.4969H14.0687ZM14.3844 6L13.6406 16.0375C13.6219 16.3 13.4031 16.5 13.1406 16.5H6.85625C6.59375 16.5 6.37812 16.2969 6.35625 16.0375L5.61562 6H14.3844Z" fill="currentColor"/>
    </symbol>

    <symbol id="pin" fill="none" stroke="currentColor" viewBox="0 0 24 24">
      <path strokeLinecap="round" strokeLinejoin="round" d="M15 10.5a3 3 0 11-6 0 3 3 0 016 0z" />
      <path strokeLinecap="round" strokeLinejoin="round" d="M19.5 10.5c0 7.142-7.5 11.25-7.5 11.25S4.5 17.642 4.5 10.5a7.5 7.5 0 1115 0z" />
    </symbol>

    <symbol id="tv" fill="none" stroke="currentColor" viewBox="0 0 24 24">
      <path strokeLinecap="round" strokeLinejoin="round" d="M6 20.25h12m-7.5-3v3m3-3v3m-10.125-3h17.25c.621 0 1.125-.504 1.125-1.125V4.875c0-.621-.504-1.125-1.125-1.125H3.375c-.621 0-1.125.504-1.125 1.125v11.25c0 .621.504 1.125 1.125 1.125z" />
    </symbol>

    <symbol id="house" fill="none" stroke="currentColor" viewBox="0 0 24 24">
      <path stroke-linecap="round" stroke-linejoin="round" d="M2.25 12l8.954-8.955c.44-.439 1.152-.439 1.591 0L21.75 12M4.5 9.75v10.125c0 .621.504 1.125 1.125 1.125H9.75v-4.875c0-.621.504-1.125 1.125-1.125h2.25c.621 0 1.125.504 1.125 1.125V21h4.125c.621 0 1.125-.504 1.125-1.125V9.75M8.25 21h8.25" />
    </symbol>
    
    <symbol id="phone" fill="none" stroke="currentColor" viewBox="0 0 24 24">
      <path stroke-linecap="round" stroke-linejoin="round" d="M2.25 6.75c0 8.284 6.716 15 15 15h2.25a2.25 2.25 0 002.25-2.25v-1.372c0-.516-.351-.966-.852-1.091l-4.423-1.106c-.44-.11-.902.055-1.173.417l-.97 1.293c-.282.376-.769.542-1.21.38a12.035 12.035 0 01-7.143-7.143c-.162-.441.004-.928.38-1.21l1.293-.97c.363-.271.527-.734.417-1.173L6.963 3.102a1.125 1.125 0 00-1.091-.852H4.5A2.25 2.25 0 002.25 4.5v2.25z" />
    </symbol>

    <symbol id="wifi" fill="none" stroke="currentColor" viewBox="0 0 24 24">
      <path stroke-linecap="round" stroke-linejoin="round" d="M8.288 15.038a5.25 5.25 0 017.424 0M5.106 11.856c3.807-3.808 9.98-3.808 13.788 0M1.924 8.674c5.565-5.565 14.587-5.565 20.152 0M12.53 18.22l-.53.53-.53-.53a.75.75 0 011.06 0z" />
    </symbol>


    <symbol id="hairdryer" viewBox="0 0 50 50" stroke="currentColor">
      <path d="m14 2c-7.71875 0-14 6.28125-14 14 0 3.859375 1.558594 7.371094 4.09375 9.90625.019531.011719.042969.023438.0625.03125.027344.027344.035156.070313.0625.09375.066406.082031.1875.238281.40625.6875.304688.625.679688 1.644531.875 3.125.070313.53125-.03125 2.472656-.28125 4.53125s-.613281 4.351563-.96875 6.0625c-.320312 1.535156-.289062 2.9375.34375 4.125.632813 1.1875 1.824219 2.03125 3.40625 2.5.042969.003906.082031.003906.125 0l4.9375.84375h.03125c.289063.035156 1.15625.101563 2.09375 0 .46875-.050781.957031-.117187 1.4375-.34375.480469-.226562 1.003906-.648437 1.21875-1.28125.238281-.707031.105469-1.457031-.125-1.96875s-.476562-.851562-.6875-1.25c-.421875-.796875-.820312-1.820312-.21875-4.40625.519531-2.230469 1.085938-3.992187 1.75-6.15625.554688-1.808594 1.320313-2.773437 1.90625-3.3125.585938-.539062.875-.59375.875-.59375.097656-.027344.195313-.070312.28125-.125l16.625-4.125c.441406-.113281.75-.511719.75-.96875v-14.75c0-.457031-.308594-.855469-.75-.96875l-19.96875-4.96875-.0625-.03125v.03125c-1.332031-.421875-2.742187-.6875-4.21875-.6875zm0 2c1.28125 0 2.527344.21875 3.6875.59375h.0625l19.25 4.8125v13.1875l-19.25 4.8125c-.019531 0-.042969 0-.0625 0-1.160156.375-2.40625.59375-3.6875.59375-3.277344 0-6.242187-1.3125-8.40625-3.4375-.03125-.023437-.0625-.042969-.09375-.0625-.019531-.019531-.042969-.042969-.0625-.0625-.019531-.023437-.039062-.042969-.0625-.0625-2.097656-2.160156-3.375-5.121094-3.375-8.375 0-6.636719 5.363281-12 12-12zm0 5c-3.855469 0-7 3.144531-7 7s3.144531 7 7 7 7-3.144531 7-7-3.144531-7-7-7zm26.78125.96875c-.527344.105469-.890625.59375-.835937 1.132813.058593.535156.515625.9375 1.054687.929687 2.320313 0 2.691406.347656 3.46875.84375s1.964844 1.15625 4.53125 1.15625c.402344.054688.800781-.128906 1.019531-.46875.21875-.34375.21875-.78125 0-1.125-.21875-.339844-.617187-.523437-1.019531-.46875-2.28125 0-2.625-.339844-3.40625-.84375s-1.992187-1.15625-4.59375-1.15625c-.074219-.007812-.144531-.007812-.21875 0zm-26.78125 1.03125c2.773438 0 5 2.226563 5 5 0 2.773438-2.226562 5-5 5-2.773437 0-5-2.226562-5-5 0-2.773437 2.226563-5 5-5zm26.78125 3.96875c-.527344.105469-.890625.59375-.835937 1.132813.058593.535156.515625.9375 1.054687.929687 2.320313 0 2.691406.347656 3.46875.84375s1.964844 1.15625 4.53125 1.15625c.402344.054688.800781-.128906 1.019531-.46875.21875-.34375.21875-.78125 0-1.125-.21875-.339844-.617187-.523437-1.019531-.46875-2.28125 0-2.625-.339844-3.40625-.84375s-1.992187-1.15625-4.59375-1.15625c-.074219-.007812-.144531-.007812-.21875 0zm0 5c-.527344.105469-.890625.59375-.835937 1.132813.058593.535156.515625.9375 1.054687.929687 2.320313 0 2.691406.347656 3.46875.84375s1.964844 1.15625 4.53125 1.15625c.402344.054688.800781-.128906 1.019531-.46875.21875-.34375.21875-.78125 0-1.125-.21875-.339844-.617187-.523437-1.019531-.46875-2.28125 0-2.625-.339844-3.40625-.84375s-1.992187-1.15625-4.59375-1.15625c-.074219-.007812-.144531-.007812-.21875 0zm-33.53125 8.28125c2.007813 1.113281 4.296875 1.75 6.75 1.75 1.304688 0 2.554688-.222656 3.75-.5625-.398437.671875-.789062 1.5-1.09375 2.5-.660156 2.15625-1.242187 3.941406-1.78125 6.25-.679687 2.921875-.207031 4.714844.375 5.8125.292969.550781.554688.902344.65625 1.125.101563.222656.125.226563.03125.5 0-.003906.011719.046875-.15625.125s-.480469.152344-.8125.1875c-.652344.070313-1.378906-.007812-1.59375-.03125h-.03125l-4.78125-.78125c-.015625-.003906-.015625-.027344-.03125-.03125-1.230469-.375-1.863281-.855469-2.1875-1.46875-.328125-.621094-.390625-1.503906-.125-2.78125.375-1.789062.742188-4.132812 1-6.25.257813-2.117187.429688-3.871094.28125-5-.0625-.488281-.15625-.929687-.25-1.34375z"/>    
    </symbol>

  </defs>
</svg>
